{
  "source": "C:\\Users\\Peter\\Desktop\\stuff\\MIUN\\quantitative_research\\video_compression\\videos\\HEVC_CLASS_B\\BQTerrace_1920x1080_60.y4m",
  "output": "C:\\Users\\Peter\\Desktop\\stuff\\MIUN\\quantitative_research\\video_compression\\compressed_videos\\HEVC_CLASS_B\\vp9\\2\\BQTerrace_1920x1080_60_vp9.webm",
  "codec": "vp9",
  "ok": "Input #0, yuv4mpegpipe, from 'C:\\Users\\Peter\\Desktop\\stuff\\MIUN\\quantitative_research\\video_compression\\videos\\HEVC_CLASS_B\\BQTerrace_1920x1080_60.y4m':\n  Duration: 00:00:10.00, start: 0.000000, bitrate: 1492994 kb/s\n  Stream #0:0: Video: rawvideo (I420 / 0x30323449), yuv420p(progressive), 1920x1080, 60 fps, 60 tbr, 60 tbn\n[out#0/webm @ 0000026485b19a00] Codec AVOption b:a (set bitrate (in bits/s)) has not been used for any stream. The most likely reason is either wrong type (e.g. a video option with no video streams) or that it is a private option of some decoder which was not actually used for any stream.\nStream mapping:\n  Stream #0:0 -> #0:0 (rawvideo (native) -> vp9 (libvpx-vp9))\nPress [q] to stop, [?] for help\n[libvpx-vp9 @ 0000026485b1ce00] v1.15.2-100-g40561f514\nOutput #0, webm, to 'C:\\Users\\Peter\\Desktop\\stuff\\MIUN\\quantitative_research\\video_compression\\compressed_videos\\HEVC_CLASS_B\\vp9\\2\\BQTerrace_1920x1080_60_vp9.webm':\n  Metadata:\n    encoder         : Lavf62.3.100\n  Stream #0:0: Video: vp9, yuv420p(tv, progressive), 1920x1080, q=2-31, 2000 kb/s, 60 fps, 1k tbn\n    Metadata:\n      encoder         : Lavc62.11.100 libvpx-vp9\n    Side data:\n      cpb: bitrate max/min/avg: 0/0/0 buffer size: 2000000 vbv_delay: N/A\nframe=    0 fps=0.0 q=0.0 size=       0KiB time=N/A bitrate=N/A speed=N/A elapsed=0:00:00.54    \nframe=    0 fps=0.0 q=0.0 size=       0KiB time=N/A bitrate=N/A speed=N/A elapsed=0:00:01.16    \nframe=    1 fps=0.5 q=35.0 size=       0KiB time=00:00:00.01 bitrate= 230.9kbits/s speed=0.00827x elapsed=0:00:02.01    \nframe=    5 fps=1.9 q=51.0 size=       0KiB time=00:00:00.08 bitrate=  46.2kbits/s speed=0.032x elapsed=0:00:02.60    \nframe=    8 fps=2.5 q=50.0 size=       0KiB time=00:00:00.13 bitrate=  28.9kbits/s speed=0.0422x elapsed=0:00:03.15    \nframe=   11 fps=2.9 q=49.0 size=       0KiB time=00:00:00.18 bitrate=  21.0kbits/s speed=0.0478x elapsed=0:00:03.83    \nframe=   13 fps=2.9 q=42.0 size=       0KiB time=00:00:00.21 bitrate=  17.8kbits/s speed=0.0487x elapsed=0:00:04.44    \nframe=   15 fps=3.0 q=46.0 size=       0KiB time=00:00:00.25 bitrate=  15.4kbits/s speed=0.0498x elapsed=0:00:05.01    \nframe=   18 fps=3.2 q=48.0 size=       0KiB time=00:00:00.30 bitrate=  12.8kbits/s speed=0.0536x elapsed=0:00:05.60    \nframe=   20 fps=3.2 q=49.0 size=       0KiB time=00:00:00.33 bitrate=  11.5kbits/s speed=0.0535x elapsed=0:00:06.23    \nframe=   22 fps=3.2 q=49.0 size=       0KiB time=00:00:00.36 bitrate=  10.5kbits/s speed=0.0538x elapsed=0:00:06.81    \nframe=   24 fps=3.3 q=49.0 size=       0KiB time=00:00:00.40 bitrate=   9.6kbits/s speed=0.0544x elapsed=0:00:07.35    \nframe=   27 fps=3.4 q=46.0 size=       0KiB time=00:00:00.43 bitrate=   8.9kbits/s speed=0.0547x elapsed=0:00:07.91    \nframe=   29 fps=3.4 q=48.0 size=       0KiB time=00:00:00.48 bitrate=   8.0kbits/s speed=0.0566x elapsed=0:00:08.53    \nframe=   31 fps=3.4 q=48.0 size=       0KiB time=00:00:00.51 bitrate=   7.4kbits/s speed=0.0564x elapsed=0:00:09.16    \nframe=   34 fps=3.5 q=49.0 size=       0KiB time=00:00:00.56 bitrate=   6.8kbits/s speed=0.0577x elapsed=0:00:09.81    \nframe=   36 fps=3.4 q=49.0 size=       0KiB time=00:00:00.60 bitrate=   6.4kbits/s speed=0.0568x elapsed=0:00:10.57    \nframe=   38 fps=3.4 q=49.0 size=       0KiB time=00:00:00.63 bitrate=   6.1kbits/s speed=0.0563x elapsed=0:00:11.24    \nframe=   41 fps=3.5 q=48.0 size=       0KiB time=00:00:00.66 bitrate=   5.8kbits/s speed=0.0565x elapsed=0:00:11.80    \nframe=   43 fps=3.4 q=48.0 size=       0KiB time=00:00:00.71 bitrate=   5.4kbits/s speed=0.0572x elapsed=0:00:12.53    \nframe=   46 fps=3.5 q=49.0 size=       0KiB time=00:00:00.75 bitrate=   5.1kbits/s speed=0.0573x elapsed=0:00:13.09    \nframe=   48 fps=3.5 q=50.0 size=       0KiB time=00:00:00.80 bitrate=   4.8kbits/s speed=0.0577x elapsed=0:00:13.86    \nframe=   50 fps=3.5 q=50.0 size=       0KiB time=00:00:00.83 bitrate=   4.6kbits/s speed=0.0575x elapsed=0:00:14.49    \nframe=   53 fps=3.5 q=49.0 size=       0KiB time=00:00:00.88 bitrate=   4.4kbits/s speed=0.0582x elapsed=0:00:15.19    \nframe=   55 fps=3.5 q=49.0 size=       0KiB time=00:00:00.91 bitrate=   4.2kbits/s speed=0.0583x elapsed=0:00:15.72    \nframe=   57 fps=3.5 q=49.0 size=       0KiB time=00:00:00.95 bitrate=   4.1kbits/s speed=0.0584x elapsed=0:00:16.25    \nframe=   60 fps=3.6 q=49.0 size=       0KiB time=00:00:01.00 bitrate=   3.8kbits/s speed=0.0596x elapsed=0:00:16.78    \nframe=   63 fps=3.6 q=46.0 size=       0KiB time=00:00:01.05 bitrate=   3.7kbits/s speed=0.0605x elapsed=0:00:17.35    \nframe=   66 fps=3.7 q=48.0 size=       0KiB time=00:00:01.10 bitrate=   3.5kbits/s speed=0.0612x elapsed=0:00:17.96    \nframe=   69 fps=3.7 q=49.0 size=       0KiB time=00:00:01.13 bitrate=   3.4kbits/s speed=0.0611x elapsed=0:00:18.53    \nframe=   71 fps=3.7 q=49.0 size=       0KiB time=00:00:01.18 bitrate=   3.3kbits/s speed=0.0617x elapsed=0:00:19.17    \nframe=   72 fps=3.6 q=49.0 size=       0KiB time=00:00:01.20 bitrate=   3.2kbits/s speed=0.0608x elapsed=0:00:19.73    \nframe=   75 fps=3.7 q=47.0 size=       0KiB time=00:00:01.23 bitrate=   3.1kbits/s speed=0.0604x elapsed=0:00:20.43    \nframe=   77 fps=3.6 q=48.0 size=       0KiB time=00:00:01.28 bitrate=   3.0kbits/s speed=0.0607x elapsed=0:00:21.12    \nframe=   80 fps=3.7 q=50.0 size=       0KiB time=00:00:01.31 bitrate=   2.9kbits/s speed=0.0604x elapsed=0:00:21.80    \nframe=   82 fps=3.7 q=50.0 size=       0KiB time=00:00:01.36 bitrate=   2.8kbits/s speed=0.0609x elapsed=0:00:22.43    \nframe=   84 fps=3.6 q=51.0 size=       0KiB time=00:00:01.40 bitrate=   2.7kbits/s speed=0.0605x elapsed=0:00:23.13    \nframe=   86 fps=3.6 q=45.0 size=       0KiB time=00:00:01.43 bitrate=   2.7kbits/s speed=0.0603x elapsed=0:00:23.77    \nframe=   88 fps=3.6 q=46.0 size=       0KiB time=00:00:01.46 bitrate=   2.6kbits/s speed=0.06x elapsed=0:00:24.45    \nframe=   90 fps=3.6 q=46.0 size=       0KiB time=00:00:01.48 bitrate=   2.6kbits/s speed=0.0592x elapsed=0:00:25.05    \nframe=   92 fps=3.6 q=47.0 size=       0KiB time=00:00:01.51 bitrate=   2.5kbits/s speed=0.0589x elapsed=0:00:25.76    \nframe=   93 fps=3.5 q=47.0 size=       0KiB time=00:00:01.55 bitrate=   2.5kbits/s speed=0.0586x elapsed=0:00:26.45    \nframe=   95 fps=3.5 q=47.0 size=       0KiB time=00:00:01.58 bitrate=   2.4kbits/s speed=0.0586x elapsed=0:00:27.01    \nframe=   96 fps=3.5 q=47.0 size=       0KiB time=00:00:01.60 bitrate=   2.4kbits/s speed=0.0579x elapsed=0:00:27.63    \nframe=   99 fps=3.5 q=47.0 size=       0KiB time=00:00:01.65 bitrate=   2.3kbits/s speed=0.0583x elapsed=0:00:28.29    \nframe=  101 fps=3.5 q=48.0 size=       0KiB time=00:00:01.68 bitrate=   2.3kbits/s speed=0.0582x elapsed=0:00:28.94    \nframe=  102 fps=3.4 q=49.0 size=       0KiB time=00:00:01.70 bitrate=   2.3kbits/s speed=0.0573x elapsed=0:00:29.67    \nframe=  105 fps=3.5 q=47.0 size=       0KiB time=00:00:01.75 bitrate=   2.2kbits/s speed=0.0576x elapsed=0:00:30.38    \nframe=  107 fps=3.4 q=49.0 size=       0KiB time=00:00:01.78 bitrate=   2.2kbits/s speed=0.0574x elapsed=0:00:31.07    \nframe=  108 fps=3.4 q=50.0 size=       0KiB time=00:00:01.80 bitrate=   2.1kbits/s speed=0.0566x elapsed=0:00:31.80    \nframe=  111 fps=3.4 q=46.0 size=       0KiB time=00:00:01.83 bitrate=   2.1kbits/s speed=0.0565x elapsed=0:00:32.43    \nframe=  113 fps=3.4 q=47.0 size=       0KiB time=00:00:01.88 bitrate=   2.0kbits/s speed=0.0569x elapsed=0:00:33.08    \nframe=  115 fps=3.4 q=40.0 size=       0KiB time=00:00:01.91 bitrate=   2.0kbits/s speed=0.0569x elapsed=0:00:33.66    \nframe=  117 fps=3.4 q=45.0 size=       0KiB time=00:00:01.95 bitrate=   2.0kbits/s speed=0.0569x elapsed=0:00:34.27    \nframe=  119 fps=3.4 q=46.0 size=       0KiB time=00:00:01.98 bitrate=   1.9kbits/s speed=0.0569x elapsed=0:00:34.87    \nframe=  121 fps=3.4 q=39.0 size=       0KiB time=00:00:02.00 bitrate=   1.9kbits/s speed=0.0564x elapsed=0:00:35.47    \nframe=  124 fps=3.4 q=46.0 size=       0KiB time=00:00:02.05 bitrate=   1.9kbits/s speed=0.0568x elapsed=0:00:36.09    \nframe=  127 fps=3.5 q=47.0 size=       0KiB time=00:00:02.11 bitrate=   1.8kbits/s speed=0.0577x elapsed=0:00:36.69    \nframe=  128 fps=3.4 q=48.0 size=       0KiB time=00:00:02.13 bitrate=   1.8kbits/s speed=0.0572x elapsed=0:00:37.32    \nframe=  132 fps=3.5 q=47.0 size=     512KiB time=00:00:02.18 bitrate=1921.1kbits/s speed=0.0577x elapsed=0:00:37.86    \nframe=  135 fps=3.5 q=46.0 size=     512KiB time=00:00:02.25 bitrate=1864.1kbits/s speed=0.0586x elapsed=0:00:38.41    \nframe=  139 fps=3.6 q=46.0 size=     512KiB time=00:00:02.31 bitrate=1810.5kbits/s speed=0.0594x elapsed=0:00:38.99    \nframe=  142 fps=3.6 q=43.0 size=     512KiB time=00:00:02.35 bitrate=1784.8kbits/s speed=0.0594x elapsed=0:00:39.58    \nframe=  144 fps=3.6 q=44.0 size=     512KiB time=00:00:02.40 bitrate=1747.6kbits/s speed=0.0598x elapsed=0:00:40.15    \nframe=  147 fps=3.6 q=45.0 size=     512KiB time=00:00:02.45 bitrate=1712.0kbits/s speed=0.0602x elapsed=0:00:40.70    \nframe=  151 fps=3.7 q=45.0 size=     512KiB time=00:00:02.51 bitrate=1666.6kbits/s speed=0.061x elapsed=0:00:41.22    \nframe=  153 fps=3.7 q=45.0 size=     512KiB time=00:00:02.55 bitrate=1644.8kbits/s speed=0.061x elapsed=0:00:41.83    \nframe=  157 fps=3.7 q=45.0 size=     512KiB time=00:00:02.61 bitrate=1602.9kbits/s speed=0.0618x elapsed=0:00:42.36    \nframe=  161 fps=3.8 q=45.0 size=     512KiB time=00:00:02.68 bitrate=1563.1kbits/s speed=0.0625x elapsed=0:00:42.93    \nframe=  163 fps=3.7 q=45.0 size=     512KiB time=00:00:02.71 bitrate=1543.9kbits/s speed=0.0625x elapsed=0:00:43.48    \nframe=  167 fps=3.8 q=43.0 size=     512KiB time=00:00:02.78 bitrate=1506.9kbits/s speed=0.0631x elapsed=0:00:44.10    \nframe=  170 fps=3.8 q=44.0 size=     512KiB time=00:00:02.83 bitrate=1480.3kbits/s speed=0.0634x elapsed=0:00:44.68    \nframe=  173 fps=3.8 q=44.0 size=     512KiB time=00:00:02.88 bitrate=1454.7kbits/s speed=0.0638x elapsed=0:00:45.21    \nframe=  176 fps=3.8 q=36.0 size=     512KiB time=00:00:02.91 bitrate=1438.0kbits/s speed=0.0637x elapsed=0:00:45.75    \nframe=  180 fps=3.9 q=43.0 size=     512KiB time=00:00:03.00 bitrate=1398.1kbits/s speed=0.0647x elapsed=0:00:46.40    \nframe=  183 fps=3.9 q=45.0 size=     512KiB time=00:00:03.05 bitrate=1375.2kbits/s speed=0.0649x elapsed=0:00:47.03    \nframe=  187 fps=3.9 q=45.0 size=     512KiB time=00:00:03.11 bitrate=1345.8kbits/s speed=0.0655x elapsed=0:00:47.58    \nframe=  190 fps=3.9 q=43.0 size=     512KiB time=00:00:03.16 bitrate=1324.5kbits/s speed=0.0657x elapsed=0:00:48.19    \nframe=  194 fps=4.0 q=44.0 size=     512KiB time=00:00:03.23 bitrate=1297.2kbits/s speed=0.0664x elapsed=0:00:48.73    \nframe=  198 fps=4.0 q=44.0 size=     512KiB time=00:00:03.30 bitrate=1271.0kbits/s speed=0.067x elapsed=0:00:49.28    \nframe=  201 fps=4.0 q=44.0 size=     512KiB time=00:00:03.35 bitrate=1252.0kbits/s speed=0.0672x elapsed=0:00:49.83    \nframe=  205 fps=4.1 q=43.0 size=     512KiB time=00:00:03.41 bitrate=1227.6kbits/s speed=0.0677x elapsed=0:00:50.46    \nframe=  209 fps=4.1 q=43.0 size=     512KiB time=00:00:03.48 bitrate=1204.1kbits/s speed=0.0682x elapsed=0:00:51.04    \nframe=  212 fps=4.1 q=36.0 size=     512KiB time=00:00:03.51 bitrate=1192.7kbits/s speed=0.0681x elapsed=0:00:51.61    \nframe=  215 fps=4.1 q=43.0 size=     512KiB time=00:00:03.58 bitrate=1170.5kbits/s speed=0.0687x elapsed=0:00:52.16    \nframe=  219 fps=4.2 q=44.0 size=     512KiB time=00:00:03.65 bitrate=1149.1kbits/s speed=0.0693x elapsed=0:00:52.68    \nframe=  222 fps=4.2 q=44.0 size=     512KiB time=00:00:03.70 bitrate=1133.6kbits/s speed=0.0695x elapsed=0:00:53.23    \nframe=  225 fps=4.2 q=44.0 size=     512KiB time=00:00:03.75 bitrate=1118.5kbits/s speed=0.0697x elapsed=0:00:53.83    \nframe=  229 fps=4.2 q=43.0 size=     512KiB time=00:00:03.81 bitrate=1098.9kbits/s speed=0.0701x elapsed=0:00:54.41    \nframe=  233 fps=4.2 q=44.0 size=     512KiB time=00:00:03.88 bitrate=1080.1kbits/s speed=0.0707x elapsed=0:00:54.95    \nframe=  236 fps=4.3 q=36.0 size=     512KiB time=00:00:03.93 bitrate=1066.3kbits/s speed=0.0709x elapsed=0:00:55.47    \nframe=  240 fps=4.3 q=45.0 size=     512KiB time=00:00:04.00 bitrate=1048.6kbits/s speed=0.0714x elapsed=0:00:56.03    \nframe=  244 fps=4.3 q=45.0 size=     512KiB time=00:00:04.06 bitrate=1031.4kbits/s speed=0.0719x elapsed=0:00:56.55    \nframe=  247 fps=4.3 q=45.0 size=     512KiB time=00:00:04.11 bitrate=1018.9kbits/s speed=0.0721x elapsed=0:00:57.09    \nframe=  251 fps=4.4 q=46.0 size=     512KiB time=00:00:04.18 bitrate=1002.6kbits/s speed=0.0726x elapsed=0:00:57.61    \nframe=  255 fps=4.4 q=46.0 size=     512KiB time=00:00:04.25 bitrate= 986.9kbits/s speed=0.073x elapsed=0:00:58.18    \nframe=  258 fps=4.4 q=45.0 size=    1024KiB time=00:00:04.28 bitrate=1958.4kbits/s speed=0.0729x elapsed=0:00:58.74    \nframe=  262 fps=4.4 q=46.0 size=    1024KiB time=00:00:04.35 bitrate=1928.4kbits/s speed=0.0732x elapsed=0:00:59.39    \nframe=  266 fps=4.4 q=46.0 size=    1024KiB time=00:00:04.43 bitrate=1892.2kbits/s speed=0.074x elapsed=0:00:59.94    \nframe=  269 fps=4.4 q=35.0 size=    1024KiB time=00:00:04.48 bitrate=1871.1kbits/s speed=0.0742x elapsed=0:01:00.45    \nframe=  273 fps=4.5 q=45.0 size=    1024KiB time=00:00:04.55 bitrate=1843.7kbits/s speed=0.0746x elapsed=0:01:00.98    \nframe=  277 fps=4.5 q=46.0 size=    1024KiB time=00:00:04.61 bitrate=1817.0kbits/s speed=0.075x elapsed=0:01:01.54    \nframe=  280 fps=4.5 q=46.0 size=    1024KiB time=00:00:04.66 bitrate=1797.6kbits/s speed=0.0751x elapsed=0:01:02.14    \nframe=  283 fps=4.5 q=45.0 size=    1024KiB time=00:00:04.71 bitrate=1778.5kbits/s speed=0.0752x elapsed=0:01:02.75    \nframe=  287 fps=4.5 q=46.0 size=    1024KiB time=00:00:04.76 bitrate=1759.8kbits/s speed=0.0753x elapsed=0:01:03.31    \nframe=  290 fps=4.5 q=46.0 size=    1024KiB time=00:00:04.83 bitrate=1735.6kbits/s speed=0.0757x elapsed=0:01:03.87    \nframe=  294 fps=4.6 q=46.0 size=    1024KiB time=00:00:04.88 bitrate=1717.8kbits/s speed=0.0758x elapsed=0:01:04.41    \nframe=  297 fps=4.6 q=45.0 size=    1024KiB time=00:00:04.95 bitrate=1694.7kbits/s speed=0.0762x elapsed=0:01:04.99    \nframe=  301 fps=4.6 q=47.0 size=    1024KiB time=00:00:05.00 bitrate=1677.7kbits/s speed=0.0763x elapsed=0:01:05.53    \nframe=  303 fps=4.6 q=47.0 size=    1024KiB time=00:00:05.05 bitrate=1661.1kbits/s speed=0.0764x elapsed=0:01:06.12    \nframe=  306 fps=4.6 q=47.0 size=    1024KiB time=00:00:05.10 bitrate=1644.8kbits/s speed=0.0764x elapsed=0:01:06.72    \nframe=  309 fps=4.6 q=44.0 size=    1024KiB time=00:00:05.15 bitrate=1628.9kbits/s speed=0.0764x elapsed=0:01:07.37    \nframe=  312 fps=4.6 q=45.0 size=    1024KiB time=00:00:05.20 bitrate=1613.2kbits/s speed=0.0765x elapsed=0:01:07.96    \nframe=  315 fps=4.6 q=46.0 size=    1024KiB time=00:00:05.25 bitrate=1597.8kbits/s speed=0.0765x elapsed=0:01:08.59    \nframe=  318 fps=4.6 q=47.0 size=    1024KiB time=00:00:05.30 bitrate=1582.8kbits/s speed=0.0767x elapsed=0:01:09.11    \nframe=  322 fps=4.6 q=47.0 size=    1024KiB time=00:00:05.35 bitrate=1568.0kbits/s speed=0.0767x elapsed=0:01:09.73    \nframe=  324 fps=4.6 q=48.0 size=    1024KiB time=00:00:05.40 bitrate=1553.4kbits/s speed=0.0767x elapsed=0:01:10.40    \nframe=  327 fps=4.6 q=47.0 size=    1024KiB time=00:00:05.45 bitrate=1539.2kbits/s speed=0.0768x elapsed=0:01:10.94    \nframe=  330 fps=4.6 q=48.0 size=    1024KiB time=00:00:05.50 bitrate=1525.2kbits/s speed=0.0769x elapsed=0:01:11.48    \nframe=  334 fps=4.6 q=48.0 size=    1024KiB time=00:00:05.56 bitrate=1506.9kbits/s speed=0.0772x elapsed=0:01:12.07    \nframe=  337 fps=4.6 q=48.0 size=    1024KiB time=00:00:05.61 bitrate=1493.5kbits/s speed=0.0773x elapsed=0:01:12.63    \nframe=  341 fps=4.7 q=49.0 size=    1024KiB time=00:00:05.68 bitrate=1476.0kbits/s speed=0.0776x elapsed=0:01:13.26    \nframe=  345 fps=4.7 q=49.0 size=    1024KiB time=00:00:05.75 bitrate=1458.9kbits/s speed=0.0779x elapsed=0:01:13.81    \nframe=  348 fps=4.7 q=48.0 size=    1024KiB time=00:00:05.80 bitrate=1446.3kbits/s speed=0.078x elapsed=0:01:14.36    \nframe=  351 fps=4.7 q=48.0 size=    1024KiB time=00:00:05.85 bitrate=1434.0kbits/s speed=0.0781x elapsed=0:01:14.93    \nframe=  355 fps=4.7 q=48.0 size=    1024KiB time=00:00:05.91 bitrate=1417.8kbits/s speed=0.0784x elapsed=0:01:15.46    \nframe=  358 fps=4.7 q=49.0 size=    1024KiB time=00:00:05.96 bitrate=1405.9kbits/s speed=0.0785x elapsed=0:01:16.00    \nframe=  360 fps=4.7 q=48.0 size=    1024KiB time=00:00:06.00 bitrate=1398.1kbits/s speed=0.0784x elapsed=0:01:16.54    \nframe=  364 fps=4.7 q=46.0 size=    1024KiB time=00:00:06.06 bitrate=1382.7kbits/s speed=0.0787x elapsed=0:01:17.06    \nframe=  367 fps=4.7 q=47.0 size=    1024KiB time=00:00:06.11 bitrate=1371.4kbits/s speed=0.0788x elapsed=0:01:17.61    \nframe=  370 fps=4.7 q=47.0 size=    1024KiB time=00:00:06.16 bitrate=1360.3kbits/s speed=0.0789x elapsed=0:01:18.17    \nframe=  373 fps=4.7 q=48.0 size=    1024KiB time=00:00:06.21 bitrate=1349.4kbits/s speed=0.079x elapsed=0:01:18.69    \nframe=  377 fps=4.8 q=49.0 size=    1024KiB time=00:00:06.28 bitrate=1335.1kbits/s speed=0.0793x elapsed=0:01:19.23    \nframe=  380 fps=4.8 q=46.0 size=    1024KiB time=00:00:06.31 bitrate=1328.0kbits/s speed=0.0792x elapsed=0:01:19.77    \nframe=  383 fps=4.8 q=47.0 size=    1024KiB time=00:00:06.38 bitrate=1314.1kbits/s speed=0.0794x elapsed=0:01:20.39    \nframe=  384 fps=4.7 q=48.0 size=    1024KiB time=00:00:06.40 bitrate=1310.7kbits/s speed=0.079x elapsed=0:01:21.03    \nframe=  387 fps=4.7 q=44.0 size=    1792KiB time=00:00:06.45 bitrate=2276.0kbits/s speed=0.079x elapsed=0:01:21.62    \nframe=  390 fps=4.7 q=46.0 size=    1792KiB time=00:00:06.50 bitrate=2258.5kbits/s speed=0.0791x elapsed=0:01:22.16    \nframe=  393 fps=4.7 q=46.0 size=    1792KiB time=00:00:06.55 bitrate=2241.2kbits/s speed=0.0792x elapsed=0:01:22.74    \nframe=  396 fps=4.8 q=47.0 size=    1792KiB time=00:00:06.60 bitrate=2224.3kbits/s speed=0.0793x elapsed=0:01:23.27    \nframe=  399 fps=4.8 q=47.0 size=    1792KiB time=00:00:06.65 bitrate=2207.5kbits/s speed=0.0793x elapsed=0:01:23.81    \nframe=  403 fps=4.8 q=47.0 size=    1792KiB time=00:00:06.70 bitrate=2191.1kbits/s speed=0.0794x elapsed=0:01:24.39    \nframe=  406 fps=4.8 q=47.0 size=    1792KiB time=00:00:06.76 bitrate=2169.5kbits/s speed=0.0796x elapsed=0:01:25.02    \nframe=  409 fps=4.8 q=40.0 size=    1792KiB time=00:00:06.81 bitrate=2153.6kbits/s speed=0.0797x elapsed=0:01:25.55    \nframe=  412 fps=4.8 q=46.0 size=    1792KiB time=00:00:06.86 bitrate=2137.9kbits/s speed=0.0797x elapsed=0:01:26.19    \nframe=  415 fps=4.8 q=46.0 size=    1792KiB time=00:00:06.91 bitrate=2122.4kbits/s speed=0.0797x elapsed=0:01:26.81    \nframe=  418 fps=4.8 q=47.0 size=    1792KiB time=00:00:06.96 bitrate=2107.2kbits/s speed=0.0797x elapsed=0:01:27.36    \nframe=  420 fps=4.8 q=47.0 size=    1792KiB time=00:00:07.00 bitrate=2097.2kbits/s speed=0.0796x elapsed=0:01:27.89    \nframe=  423 fps=4.8 q=45.0 size=    1792KiB time=00:00:07.05 bitrate=2082.3kbits/s speed=0.0797x elapsed=0:01:28.47    \nframe=  426 fps=4.8 q=46.0 size=    1792KiB time=00:00:07.10 bitrate=2067.6kbits/s speed=0.0797x elapsed=0:01:29.05    \nframe=  429 fps=4.8 q=46.0 size=    1792KiB time=00:00:07.15 bitrate=2053.2kbits/s speed=0.0798x elapsed=0:01:29.65    \nframe=  432 fps=4.8 q=46.0 size=    1792KiB time=00:00:07.20 bitrate=2038.9kbits/s speed=0.0798x elapsed=0:01:30.17    \nframe=  434 fps=4.8 q=45.0 size=    1792KiB time=00:00:07.23 bitrate=2029.5kbits/s speed=0.0797x elapsed=0:01:30.76    \nframe=  437 fps=4.8 q=44.0 size=    1792KiB time=00:00:07.28 bitrate=2015.6kbits/s speed=0.0798x elapsed=0:01:31.28    \nframe=  440 fps=4.8 q=45.0 size=    1792KiB time=00:00:07.33 bitrate=2001.8kbits/s speed=0.0798x elapsed=0:01:31.88    \nframe=  443 fps=4.8 q=46.0 size=    1792KiB time=00:00:07.38 bitrate=1988.3kbits/s speed=0.0798x elapsed=0:01:32.48    \nframe=  445 fps=4.8 q=36.0 size=    1792KiB time=00:00:07.41 bitrate=1979.3kbits/s speed=0.0797x elapsed=0:01:33.06    \nframe=  448 fps=4.8 q=46.0 size=    1792KiB time=00:00:07.46 bitrate=1966.1kbits/s speed=0.0798x elapsed=0:01:33.58    \nframe=  451 fps=4.8 q=46.0 size=    1792KiB time=00:00:07.51 bitrate=1953.0kbits/s speed=0.0799x elapsed=0:01:34.12    \nframe=  454 fps=4.8 q=46.0 size=    1792KiB time=00:00:07.56 bitrate=1940.1kbits/s speed=0.0799x elapsed=0:01:34.65    \nframe=  456 fps=4.8 q=47.0 size=    1792KiB time=00:00:07.60 bitrate=1931.6kbits/s speed=0.0798x elapsed=0:01:35.25    \nframe=  460 fps=4.8 q=46.0 size=    1792KiB time=00:00:07.66 bitrate=1914.8kbits/s speed=0.08x elapsed=0:01:35.82    \nframe=  463 fps=4.8 q=47.0 size=    1792KiB time=00:00:07.70 bitrate=1906.5kbits/s speed=0.0799x elapsed=0:01:36.37    \nframe=  465 fps=4.8 q=48.0 size=    1792KiB time=00:00:07.75 bitrate=1894.2kbits/s speed=0.08x elapsed=0:01:36.88    \nframe=  468 fps=4.8 q=48.0 size=    1792KiB time=00:00:07.80 bitrate=1882.1kbits/s speed=0.08x elapsed=0:01:37.48    \nframe=  470 fps=4.8 q=48.0 size=    1792KiB time=00:00:07.83 bitrate=1874.1kbits/s speed=0.0799x elapsed=0:01:38.06    \nframe=  473 fps=4.8 q=47.0 size=    1792KiB time=00:00:07.88 bitrate=1862.2kbits/s speed=0.0799x elapsed=0:01:38.63    \nframe=  477 fps=4.8 q=48.0 size=    1792KiB time=00:00:07.95 bitrate=1846.5kbits/s speed=0.0802x elapsed=0:01:39.17    \nframe=  480 fps=4.8 q=48.0 size=    1792KiB time=00:00:08.00 bitrate=1835.0kbits/s speed=0.0802x elapsed=0:01:39.74    \nframe=  484 fps=4.8 q=46.0 size=    1792KiB time=00:00:08.06 bitrate=1819.8kbits/s speed=0.0804x elapsed=0:01:40.35    \nframe=  488 fps=4.8 q=47.0 size=    1792KiB time=00:00:08.13 bitrate=1804.9kbits/s speed=0.0806x elapsed=0:01:40.91    \nframe=  491 fps=4.8 q=48.0 size=    1792KiB time=00:00:08.18 bitrate=1793.9kbits/s speed=0.0806x elapsed=0:01:41.49    \nframe=  494 fps=4.8 q=49.0 size=    1792KiB time=00:00:08.23 bitrate=1783.0kbits/s speed=0.0807x elapsed=0:01:42.01    \nframe=  498 fps=4.9 q=48.0 size=    1792KiB time=00:00:08.30 bitrate=1768.7kbits/s speed=0.0809x elapsed=0:01:42.56    \nframe=  502 fps=4.9 q=49.0 size=    1792KiB time=00:00:08.36 bitrate=1754.6kbits/s speed=0.0811x elapsed=0:01:43.15    \nframe=  505 fps=4.9 q=47.0 size=    1792KiB time=00:00:08.41 bitrate=1744.2kbits/s speed=0.0812x elapsed=0:01:43.68    \nframe=  509 fps=4.9 q=48.0 size=    1792KiB time=00:00:08.46 bitrate=1733.9kbits/s speed=0.0812x elapsed=0:01:44.23    \nframe=  512 fps=4.9 q=49.0 size=    1792KiB time=00:00:08.53 bitrate=1720.3kbits/s speed=0.0814x elapsed=0:01:44.81    \nframe=  514 fps=4.9 q=48.0 size=    2304KiB time=00:00:08.56 bitrate=2203.2kbits/s speed=0.0813x elapsed=0:01:45.36    \nframe=  518 fps=4.9 q=48.0 size=    2304KiB time=00:00:08.63 bitrate=2186.2kbits/s speed=0.0815x elapsed=0:01:45.92    \nframe=  522 fps=4.9 q=48.0 size=    2304KiB time=00:00:08.70 bitrate=2169.5kbits/s speed=0.0816x elapsed=0:01:46.58    \nframe=  525 fps=4.9 q=50.0 size=    2304KiB time=00:00:08.75 bitrate=2157.1kbits/s speed=0.0817x elapsed=0:01:47.11    \nframe=  530 fps=4.9 q=49.0 size=    2304KiB time=00:00:08.81 bitrate=2140.8kbits/s speed=0.0818x elapsed=0:01:47.72    \nframe=  534 fps=4.9 q=51.0 size=    2304KiB time=00:00:08.90 bitrate=2120.7kbits/s speed=0.0821x elapsed=0:01:48.43    \nframe=  537 fps=4.9 q=47.0 size=    2304KiB time=00:00:08.95 bitrate=2108.9kbits/s speed=0.0821x elapsed=0:01:49.05    \nframe=  540 fps=4.9 q=48.0 size=    2304KiB time=00:00:09.00 bitrate=2097.2kbits/s speed=0.0821x elapsed=0:01:49.64    \nframe=  544 fps=4.9 q=47.0 size=    2304KiB time=00:00:09.06 bitrate=2081.7kbits/s speed=0.0823x elapsed=0:01:50.18    \nframe=  546 fps=4.9 q=49.0 size=    2304KiB time=00:00:09.10 bitrate=2074.1kbits/s speed=0.0821x elapsed=0:01:50.78    \nframe=  550 fps=4.9 q=47.0 size=    2304KiB time=00:00:09.15 bitrate=2062.8kbits/s speed=0.0822x elapsed=0:01:51.33    \nframe=  553 fps=4.9 q=47.0 size=    2304KiB time=00:00:09.21 bitrate=2047.9kbits/s speed=0.0823x elapsed=0:01:51.93    \nframe=  556 fps=4.9 q=47.0 size=    2304KiB time=00:00:09.26 bitrate=2036.8kbits/s speed=0.0824x elapsed=0:01:52.46    \nframe=  558 fps=4.9 q=47.0 size=    2304KiB time=00:00:09.30 bitrate=2029.5kbits/s speed=0.0823x elapsed=0:01:53.05    \nframe=  561 fps=4.9 q=45.0 size=    2304KiB time=00:00:09.35 bitrate=2018.6kbits/s speed=0.0823x elapsed=0:01:53.57    \nframe=  565 fps=5.0 q=47.0 size=    2304KiB time=00:00:09.41 bitrate=2004.4kbits/s speed=0.0825x elapsed=0:01:54.13    \nframe=  569 fps=5.0 q=47.0 size=    2304KiB time=00:00:09.48 bitrate=1990.3kbits/s speed=0.0826x elapsed=0:01:54.78    \nframe=  572 fps=5.0 q=48.0 size=    2304KiB time=00:00:09.53 bitrate=1979.8kbits/s speed=0.0826x elapsed=0:01:55.35    \nframe=  575 fps=5.0 q=46.0 size=    2304KiB time=00:00:09.58 bitrate=1969.5kbits/s speed=0.0826x elapsed=0:01:56.00    \nframe=  576 fps=4.9 q=46.0 size=    2304KiB time=00:00:09.60 bitrate=1966.1kbits/s speed=0.0823x elapsed=0:01:56.59    \nframe=  576 fps=4.9 q=46.0 size=    2304KiB time=00:00:09.60 bitrate=1966.1kbits/s speed=0.0819x elapsed=0:01:57.16    \nframe=  576 fps=4.9 q=46.0 size=    2304KiB time=00:00:09.60 bitrate=1966.1kbits/s speed=0.0815x elapsed=0:01:57.74    \nframe=  576 fps=4.9 q=46.0 size=    2304KiB time=00:00:09.60 bitrate=1966.1kbits/s speed=0.0811x elapsed=0:01:58.35    \nframe=  576 fps=4.8 q=46.0 size=    2304KiB time=00:00:09.60 bitrate=1966.1kbits/s speed=0.0808x elapsed=0:01:58.87    \nframe=  576 fps=4.8 q=46.0 size=    2304KiB time=00:00:09.60 bitrate=1966.1kbits/s speed=0.0804x elapsed=0:01:59.44    \nframe=  576 fps=4.8 q=46.0 size=    2304KiB time=00:00:09.60 bitrate=1966.1kbits/s speed=0.08x elapsed=0:02:00.06    \n[out#0/webm @ 0000026485b19a00] video:2958KiB audio:0KiB subtitle:0KiB other streams:0KiB global headers:0KiB muxing overhead: 0.160880%\nframe=  600 fps=5.0 q=46.0 Lsize=    2963KiB time=00:00:10.00 bitrate=2427.1kbits/s speed=0.0831x elapsed=0:02:00.34    \n",
  "seconds": 120.61219120025635,
  "probe_out": {}
}